<svg xmlns="http://www.w3.org/2000/svg" version="1.1" xmlns:xlink="http://www.w3.org/1999/xlink" xmlns:svgjs="http://svgjs.com/svgjs" width="1440" height="560" preserveAspectRatio="none" viewBox="0 0 1440 560"><g mask="url(&quot;#SvgjsMask1007&quot;)" fill="none"><rect width="1440" height="560" x="0" y="0" fill="rgba(15, 157, 88, 1)"></rect><path d="M1440 0L1295.82 0L1440 147.01z" fill="rgba(255, 255, 255, .1)"></path><path d="M1295.82 0L1440 147.01L1440 313.78999999999996L1234.6499999999999 0z" fill="rgba(255, 255, 255, .075)"></path><path d="M1234.65 0L1440 313.78999999999996L1440 313.90999999999997L625.95 0z" fill="rgba(255, 255, 255, .05)"></path><path d="M625.9499999999999 0L1440 313.90999999999997L1440 452.75L347.87999999999994 0z" fill="rgba(255, 255, 255, .025)"></path><path d="M0 560L113.7 560L0 310.52z" fill="rgba(0, 0, 0, .1)"></path><path d="M0 310.52L113.7 560L513.25 560L0 165.35999999999999z" fill="rgba(0, 0, 0, .075)"></path><path d="M0 165.36L513.25 560L830.3 560L0 63.49000000000001z" fill="rgba(0, 0, 0, .05)"></path><path d="M0 63.49000000000001L830.3 560L1015.68 560L0 51.08000000000001z" fill="rgba(0, 0, 0, .025)"></path></g><defs><mask id="SvgjsMask1007"><rect width="1440" height="560" fill="#ffffff"></rect></mask></defs></svg>